<svg xmlns="http://www.w3.org/2000/svg" viewBox="0 0 47.02 38.67"><title>Asset 94</title><g id="Layer_2" data-name="Layer 2"><g id="Layer_1-2" data-name="Layer 1"><path d="M17.37,7.73a6.57,6.57,0,0,0-5-1.63,6.94,6.94,0,0,0-6.29,7,7,7,0,0,0,6.69,6.64,6.73,6.73,0,0,0,7-6.41A14.5,14.5,0,0,1,23.06,4.3C27.67-1.13,37-1.47,41.71,3.69l-4.3,4.14L36.8,7.4a6.37,6.37,0,0,0-6.85-.69,6.54,6.54,0,0,0-4,5.82C25.72,18,23.4,22.26,18.3,24.69A12.94,12.94,0,0,1,4.16,3.38C8.33-.4,15.19-.71,19.91,1.94"/><path d="M25.26,23.48a15.31,15.31,0,0,0,2.1,1.21A12.94,12.94,0,0,0,41.51,3.38a13.15,13.15,0,0,0-16.85-.63c-.31.25-.58.61-.84.8l3,5.75c1.67-2.13,3.74-3.46,6.52-3.21a6.94,6.94,0,0,1,6.29,7,6.93,6.93,0,0,1-11,5.32Z"/><path d="M25.6,35.53l3.46-5.22h0A6.83,6.83,0,0,0,40.78,24.2a6.72,6.72,0,0,0-.82-2l4.4-4.36a13.31,13.31,0,0,1,1.52,13.34,13,13,0,0,1-15.61,7,12,12,0,0,1-4.75-2.66"/></g></g></svg>