<svg xmlns="http://www.w3.org/2000/svg" viewBox="0 0 72.24 59.4"><defs><style>.cls-1{fill:#fff;}</style></defs><title>logo.png_1</title><g id="Layer_2" data-name="Layer 2"><g id="Layer_1-2" data-name="Layer 1"><path class="cls-1" d="M33.68,5.25l-4.7,9C26.41,11,23.23,9,19,9.36A10.66,10.66,0,0,0,9.3,20.15a10.67,10.67,0,0,0,10.27,10.2,10.34,10.34,0,0,0,10.79-9.84c.27-5.22,1.63-9.87,5.06-13.91,7.09-8.34,21.42-8.86,28.65-.93L57.47,12l-.93-.66A9.79,9.79,0,0,0,46,10.32a10,10,0,0,0-6.1,8.94c-.39,8.46-4,14.93-11.79,18.67C19.66,42,8.71,39,3.57,31.32A20,20,0,0,1,6.39,5.19c7.21-6.54,18.49-7,25.88-1C32.75,4.62,33.27,5,33.68,5.25Z"/><path class="cls-1" d="M38.81,36.07A23.52,23.52,0,0,0,42,37.93c8.46,4,19.4,1.06,24.55-6.61A20,20,0,0,0,63.77,5.19c-7.21-6.54-18.49-7-25.88-1-.48.39-1,.73-1.41,1l4.7,9C43.75,11,46.93,9,51.2,9.36a10.66,10.66,0,0,1,9.66,10.79A10.64,10.64,0,0,1,44,28.33Z"/><path class="cls-1" d="M39.33,54.59l5.31-8h-.06a10.49,10.49,0,0,0,18.07-9.38A10.32,10.32,0,0,0,61.4,34l6.77-6.69A20.45,20.45,0,0,1,70.5,47.84a20,20,0,0,1-24,10.75,18.46,18.46,0,0,1-7.29-4.09"/></g></g></svg>